<svg xmlns="http://www.w3.org/2000/svg" xmlns:xlink="http://www.w3.org/1999/xlink" width="186.382" height="83.791" viewBox="0 0 186.382 83.791"><defs><linearGradient id="a" x2="0" y2="1" gradientUnits="objectBoundingBox"><stop offset="0" stop-color="#ea8807" stop-opacity="0.596"/><stop offset="1" stop-color="#ea6807" stop-opacity="0"/></linearGradient></defs><g transform="translate(0.191 0.791)"><g transform="translate(0)" opacity="0.5"><path d="M0,10.222,7.44,13.3l9.3-6.148,7.44,27.667,7.44-3.074L40.92,13.3h7.44L55.8,16.37l9.3,12.3,7.44,6.148,7.44,3.074,9.3-6.148,7.44-9.222,9.3-15.37L113.46,1l7.44,15.37,9.3-6.148,7.44,39.963,7.44-24.593,9.3,18.444,7.44,24.593,7.763,8.673,8.977-8.673L186,65.556" transform="translate(0 -1)" fill="none" stroke="#d94444" stroke-width="1"/><path d="M0,84V10.222L7.44,13.3l9.3-6.148,7.44,27.667,7.44-3.074L40.92,13.3h7.44L55.8,16.37l9.3,12.3,7.44,6.148,7.44,3.074,9.3-6.148,7.44-9.222,9.3-15.37L113.46,1l7.44,15.37,9.3-6.148,7.44,39.963,7.44-24.593,9.3,18.444,7.44,24.593L169.5,77.2l9.061-8.574L186,65.556V84" transform="translate(0 -1)" fill="url(#a)"/></g></g></svg>