<svg xmlns="http://www.w3.org/2000/svg" xmlns:xlink="http://www.w3.org/1999/xlink" width="181.273" height="28.453" viewBox="0 0 181.273 28.453"><defs><linearGradient id="a" x2="0" y2="1" gradientUnits="objectBoundingBox"><stop offset="0" stop-color="#ea8807" stop-opacity="0.596"/><stop offset="1" stop-color="#ea6807" stop-opacity="0"/></linearGradient><linearGradient id="b" x1="1" x2="1" y2="1" gradientUnits="objectBoundingBox"><stop offset="0" stop-color="#52ea07" stop-opacity="0.596"/><stop offset="1" stop-color="#07ea07" stop-opacity="0"/></linearGradient></defs><g transform="translate(0.137 0.659)"><g opacity="0.5"><path d="M0,4.088,3.62,5.118,8.145,3.059l3.62,9.265,3.62-1.029L19.91,5.118h3.62l3.62,1.029,4.525,4.118,3.62,2.059,3.62,1.029,4.525-2.059,3.62-3.088,4.525-5.147L55.205,1l3.62,5.147L63.35,4.088,66.97,17.47l3.62-8.235,4.525,6.176,3.62,8.235,3.777,2.9,4.368-2.9,3.62-1.029" transform="translate(0 -1)" fill="none" stroke="#d94444" stroke-width="1"/><path d="M0,28.794V4.088L3.62,5.118,8.145,3.059l3.62,9.265,3.62-1.029L19.91,5.118h3.62l3.62,1.029,4.525,4.118,3.62,2.059,3.62,1.029,4.525-2.059,3.62-3.088,4.525-5.147L55.205,1l3.62,5.147L63.35,4.088,66.97,17.47l3.62-8.235,4.525,6.176,3.62,8.235,3.736,2.871,4.409-2.871,3.62-1.029v6.176" transform="translate(0 -1)" fill="url(#a)"/></g><g transform="translate(90.5)" opacity="0.5"><path d="M90.5,4.088,86.88,5.118,82.355,3.059l-3.62,9.265-3.62-1.029L70.59,5.118H66.97L63.35,6.147l-4.525,4.118-3.62,2.059-3.62,1.029L47.06,11.294,43.44,8.206,38.915,3.059,35.3,1l-3.62,5.147L27.15,4.088,23.53,17.47,19.91,9.235l-4.525,6.176-3.62,8.235-3.777,2.9-4.368-2.9L0,22.617" transform="translate(0 -1)" fill="none" stroke="#03a66d" stroke-width="1"/><path d="M90.5,28.794V4.088L86.88,5.118,82.355,3.059l-3.62,9.265-3.62-1.029L70.59,5.118H66.97L63.35,6.147l-4.525,4.118-3.62,2.059-3.62,1.029L47.06,11.294,43.44,8.206,38.915,3.059,35.3,1l-3.62,5.147L27.15,4.088,23.53,17.47,19.91,9.235l-4.525,6.176-3.62,8.235L8.029,26.518,3.62,23.647,0,22.617v6.176" transform="translate(0 -1)" fill="url(#b)"/></g></g></svg>