<svg xmlns="http://www.w3.org/2000/svg" xmlns:xlink="http://www.w3.org/1999/xlink" width="186.382" height="83.791" viewBox="0 0 186.382 83.791"><defs><linearGradient id="a" x1="1" x2="1" y2="1" gradientUnits="objectBoundingBox"><stop offset="0" stop-color="#52ea07" stop-opacity="0.596"/><stop offset="1" stop-color="#07ea07" stop-opacity="0"/></linearGradient></defs><g transform="translate(0.191 0.791)"><g opacity="0.5"><path d="M186,10.222,178.56,13.3l-9.3-6.148-7.44,27.667-7.44-3.074L145.08,13.3h-7.44L130.2,16.37l-9.3,12.3-7.44,6.148-7.44,3.074-9.3-6.148-7.44-9.222-9.3-15.37L72.54,1,65.1,16.37l-9.3-6.148L48.36,50.185,40.92,25.593l-9.3,18.444L24.18,68.63,16.417,77.3,7.44,68.63,0,65.556" transform="translate(0 -1)" fill="none" stroke="#03a66d" stroke-width="1"/><path d="M186,84V10.222L178.56,13.3l-9.3-6.148-7.44,27.667-7.44-3.074L145.08,13.3h-7.44L130.2,16.37l-9.3,12.3-7.44,6.148-7.44,3.074-9.3-6.148-7.44-9.222-9.3-15.37L72.54,1,65.1,16.37l-9.3-6.148L48.36,50.185,40.92,25.593l-9.3,18.444L24.18,68.63,16.5,77.2,7.44,68.63,0,65.556V84" transform="translate(0 -1)" fill="url(#a)"/></g></g></svg>